# Blender 4.0.2
# www.blender.org
mtllib doorFrameTest2.mtl
o ì›í˜•
v 0.000000 44.833580 -0.401545
v 0.000000 44.833580 -59.981068
v 0.000000 56.456970 -58.836266
v 0.000000 67.633682 -55.445843
v 0.000000 77.934189 -49.940105
v 0.000000 86.962662 -42.530628
v 0.000000 94.372139 -33.502155
v 0.000000 99.877876 -23.201643
v 0.000000 103.268295 -12.024933
v 0.000000 104.413101 -0.401545
v 0.000000 103.268295 11.221843
v 0.000000 99.877876 22.398550
v 0.000000 94.372139 32.699066
v 0.000000 86.962662 41.727535
v 0.000000 77.934189 49.137012
v 0.000000 67.633682 54.642750
v 0.000000 56.456970 58.033173
v 0.000000 44.833580 59.177975
v -0.000000 33.210190 58.033173
v -0.000000 22.033485 54.642750
v -0.000000 11.732967 49.137012
v -0.000000 2.704498 41.727535
v -0.000000 -4.704979 32.699066
v -0.000000 -10.210712 22.398550
v -0.000000 -13.601139 11.221843
v -0.000000 -14.745941 -0.401545
v -0.000000 -13.601139 -12.024933
v -0.000000 -10.210712 -23.201643
v -0.000000 -4.704979 -33.502155
v -0.000000 2.704498 -42.530628
v -0.000000 11.732967 -49.940105
v -0.000000 22.033485 -55.445843
v -0.000000 33.210190 -58.836266
vn 1.0000 -0.0000 -0.0000
vt 0.500000 0.500000
vt 0.500000 1.000000
vt 0.402455 0.990393
vt 0.308658 0.961940
vt 0.222215 0.915735
vt 0.146447 0.853553
vt 0.084265 0.777785
vt 0.038060 0.691342
vt 0.009607 0.597545
vt 0.000000 0.500000
vt 0.009607 0.402455
vt 0.038060 0.308658
vt 0.084265 0.222215
vt 0.146447 0.146447
vt 0.222215 0.084265
vt 0.308658 0.038060
vt 0.402455 0.009607
vt 0.500000 0.000000
vt 0.597545 0.009607
vt 0.691342 0.038060
vt 0.777785 0.084265
vt 0.853553 0.146447
vt 0.915735 0.222215
vt 0.961940 0.308658
vt 0.990393 0.402455
vt 1.000000 0.500000
vt 0.990393 0.597545
vt 0.961940 0.691342
vt 0.915735 0.777785
vt 0.853553 0.853553
vt 0.777785 0.915735
vt 0.691342 0.961940
vt 0.597545 0.990393
s 0
f 1/1/1 2/2/1 3/3/1
f 1/1/1 3/3/1 4/4/1
f 1/1/1 4/4/1 5/5/1
f 1/1/1 5/5/1 6/6/1
f 1/1/1 6/6/1 7/7/1
f 1/1/1 7/7/1 8/8/1
f 1/1/1 8/8/1 9/9/1
f 1/1/1 9/9/1 10/10/1
f 1/1/1 10/10/1 11/11/1
f 1/1/1 11/11/1 12/12/1
f 1/1/1 12/12/1 13/13/1
f 1/1/1 13/13/1 14/14/1
f 1/1/1 14/14/1 15/15/1
f 1/1/1 15/15/1 16/16/1
f 1/1/1 16/16/1 17/17/1
f 1/1/1 17/17/1 18/18/1
f 1/1/1 18/18/1 19/19/1
f 1/1/1 19/19/1 20/20/1
f 1/1/1 20/20/1 21/21/1
f 1/1/1 21/21/1 22/22/1
f 1/1/1 22/22/1 23/23/1
f 1/1/1 23/23/1 24/24/1
f 1/1/1 24/24/1 25/25/1
f 1/1/1 25/25/1 26/26/1
f 1/1/1 26/26/1 27/27/1
f 1/1/1 27/27/1 28/28/1
f 1/1/1 28/28/1 29/29/1
f 1/1/1 29/29/1 30/30/1
f 1/1/1 30/30/1 31/31/1
f 1/1/1 31/31/1 32/32/1
f 1/1/1 32/32/1 33/33/1
f 1/1/1 33/33/1 2/2/1
