# Blender 4.0.2
# www.blender.org
mtllib bts_table.mtl
o bts_table_reference
v 15.993813 -14.906350 -28.914846
v 14.079956 -14.906352 -28.981682
v 15.061157 -14.906352 -29.643520
v 15.589016 -14.906350 -27.802679
v 14.406187 -14.906352 -27.843985
v -16.115887 7.969921 -29.523794
v -14.465138 7.969921 -27.872555
v -14.445229 7.969921 27.279896
v -16.095171 7.969924 28.925457
v 13.629440 13.741787 27.422333
v 13.629441 7.969925 27.422333
v -14.445225 13.741783 27.279896
v 15.280201 7.969923 29.073584
v 16.736380 13.677903 28.049324
v 15.556180 -14.906341 29.336967
v 15.994752 -14.906341 28.237671
v 15.964482 13.677903 29.984081
v 16.729332 13.677903 -29.125765
v 16.016891 13.677903 -27.168344
v 15.084785 -14.906343 27.480869
v 13.373150 13.677901 27.828892
v 15.134831 13.677903 26.717346
v 14.083834 -14.906343 28.112427
v 13.935114 13.677903 -27.241041
v 15.259523 13.741787 -29.375668
v 15.280213 13.741788 29.073582
v 13.609556 13.741787 -27.730120
v -16.115881 13.741786 -29.523792
v -14.465137 13.741783 -27.872551
v -16.095171 13.741781 28.925457
v 15.087866 13.677901 -30.408216
v 13.360941 13.677903 -29.243383
v 15.259516 7.969923 -29.375668
v 13.609556 7.969923 -27.730120
v -15.068083 -14.906357 27.509562
v -16.756163 13.677895 27.060974
v -14.684053 13.677896 26.847750
v -16.245415 -14.906359 27.630705
v -14.589052 -14.906357 28.591825
v -16.494013 -14.906359 28.787853
v -15.470320 -14.906359 29.381863
v 14.375160 -14.906343 29.259558
v -15.391998 13.677895 30.143011
v -13.840950 13.677896 28.752544
v -14.654836 -14.906357 -28.349308
v -14.479641 13.677896 -30.087164
v -13.940512 13.677896 -28.075100
v -14.961158 -14.906357 -29.492531
v -15.647440 -14.906359 -27.704697
v -16.143089 -14.906359 -29.554476
v -16.567242 -14.906359 -28.449526
v -21.239159 14.374525 37.120491
v 20.922791 14.374528 37.436882
v -20.922752 14.374525 37.436890
v 21.239193 14.374528 37.120476
v -21.239197 14.374525 -37.120476
v 21.239170 14.374529 -37.120491
v -20.922791 14.374526 -37.436874
v 20.922771 14.374529 -37.436897
v 20.922791 14.815175 37.436882
v 21.239193 14.815175 37.120476
v 21.239170 14.815176 -37.120491
v -20.922752 14.815172 37.436890
v 20.261221 14.906359 37.019554
v -20.501183 14.906356 37.019569
v -20.811359 14.906356 36.706299
v -20.811380 14.906356 -36.601570
v -21.239197 14.815172 -37.120476
v -20.501217 14.906356 -36.914833
v -20.922791 14.815173 -37.436874
v 20.922771 14.815176 -37.436897
v 20.261196 14.906359 -36.914852
v 20.571362 14.906359 -36.601585
v 20.571388 14.906359 36.706284
v -21.239159 14.815172 37.120491
v -17.306332 13.677895 -28.251493
v -15.687485 13.677895 -26.940582
v 13.885902 13.677901 29.847841
v -17.869457 13.673457 -32.395912
v 18.311108 14.400030 -33.056591
v 17.869469 13.673460 -32.395912
v -18.311104 14.400025 -33.056572
v -17.869431 13.673455 32.395916
v -18.311077 14.400025 33.056599
v 17.869488 13.673460 32.395912
v 18.311127 14.400029 33.056580
v -16.559826 13.677895 -30.196180
v -17.193697 13.677895 29.097542
vn -0.0000 -1.0000 -0.0000
vn 0.0051 -0.0000 -1.0000
vn 0.9286 -0.0217 0.3705
vn 0.9395 -0.0217 0.3419
vn -0.5335 -0.0217 -0.8455
vn -0.0349 -0.0217 0.9992
vn -0.0000 1.0000 -0.0000
vn -0.5591 -0.0217 -0.8288
vn -0.9610 -0.0217 0.2756
vn -0.0051 -0.0000 1.0000
vn 1.0000 -0.0000 -0.0004
vn -0.1023 -0.0217 -0.9945
vn 0.6674 -0.0217 0.7444
vn 0.9142 -0.0217 -0.4046
vn 0.9142 -0.0217 -0.4047
vn 0.9657 -0.0217 -0.2588
vn 0.9239 -0.0000 0.3827
vn 0.3827 -0.0000 0.9239
vn 0.9239 -0.0000 -0.3827
vn -0.3827 -0.0000 0.9239
vn 0.0211 0.9915 0.1282
vn 0.0421 0.9879 0.1490
vn 0.1098 0.9931 0.0418
vn -0.0359 0.9833 0.1784
vn -0.0135 0.9991 0.0402
vn -0.1317 0.9909 0.0269
vn -0.0764 0.9968 -0.0240
vn -0.1714 0.9847 -0.0318
vn -0.0192 0.9959 -0.0882
vn -0.0480 0.9898 -0.1340
vn 0.0256 0.9898 -0.1404
vn 0.0192 0.9979 -0.0623
vn 0.0531 0.9984 -0.0191
vn 0.0549 0.9983 0.0209
vn 0.1061 0.9936 -0.0382
vn -0.1584 0.9859 0.0536
vn -0.9239 -0.0000 -0.3827
vn -0.3827 -0.0000 -0.9239
vn -0.9239 -0.0000 0.3827
vn -0.6292 -0.0217 0.7770
vn 0.5445 -0.0217 0.8385
vn -0.9690 -0.0217 0.2461
vn 0.6393 -0.0217 -0.7687
vn -0.3465 -0.8888 -0.3000
vn -0.0000 -0.6728 -0.7399
vn 0.3465 -0.8888 -0.3000
vn -0.3464 -0.8888 -0.3000
vn -0.3465 -0.8888 0.2999
vn -0.8545 -0.5194 -0.0000
vn 0.3464 -0.8888 0.3000
vn 0.8545 -0.5194 -0.0000
vn 0.3465 -0.8888 -0.2999
vn -0.0000 -0.6728 0.7399
vn -0.0654 -0.0217 0.9976
vn 0.6155 -0.0217 -0.7878
vn 0.0523 -0.0217 -0.9984
vn -0.9334 -0.0217 -0.3583
vn -0.9775 -0.0217 -0.2100
vn -0.5018 -0.0217 0.8647
vn 0.0047 -0.0000 -1.0000
vn -0.0047 -0.0000 1.0000
vn -1.0000 -0.0000 0.0004
vn 0.3827 -0.0000 -0.9239
vt 0.684159 0.053811
vt 0.684159 0.006462
vt 0.684159 0.027797
vt 0.684159 0.123218
vt 0.684159 0.080264
vt 0.684159 0.102147
vt 0.645512 0.455434
vt 0.670027 0.466592
vt 0.670323 0.974449
vt 0.645819 0.985568
vt 0.929658 0.131593
vt 0.869825 0.444283
vt 0.929656 0.444283
vt 0.869825 0.131593
vt 0.708256 0.144825
vt 0.727466 0.133271
vt 0.725742 0.444716
vt 0.706598 0.433167
vt 0.994612 0.028984
vt 0.684161 0.053811
vt 0.684161 0.027797
vt 0.994612 0.053957
vt 0.994610 0.053957
vt 0.994610 0.079099
vt 0.684161 0.123218
vt 0.994612 0.101463
vt 0.994612 0.123734
vt 0.684161 0.102147
vt 0.994610 0.101463
vt 0.733183 0.458533
vt 0.708974 0.977511
vt 0.733490 0.988669
vt 0.708679 0.469652
vt 0.630543 0.440539
vt 0.651410 0.140642
vt 0.632267 0.129095
vt 0.649753 0.428985
vt 0.700774 0.444716
vt 0.683287 0.144825
vt 0.681630 0.433167
vt 0.702497 0.133271
vt 0.994610 0.028984
vt 0.994610 0.006978
vt 0.994610 0.123734
vt 0.613555 0.980846
vt 0.639870 0.462437
vt 0.613221 0.451291
vt 0.640191 0.969740
vt 0.673335 0.428985
vt 0.654124 0.440539
vt 0.655848 0.129095
vt 0.674992 0.140642
vt 0.939862 0.444435
vt 0.999693 0.131742
vt 0.999693 0.444435
vt 0.939862 0.131742
vt 0.941133 0.980974
vt 0.998788 0.461743
vt 0.998788 0.980974
vt 0.941133 0.461743
vt 0.684161 0.006462
vt 0.684161 0.080264
vt 0.684159 0.101658
vt 0.994610 0.078610
vt 0.994610 0.100975
vt 0.684159 0.079776
vt 0.684159 0.122730
vt 0.684159 0.053323
vt 0.684159 0.005973
vt 0.684159 0.027308
vt 0.557156 0.680698
vt 0.560925 0.987180
vt 0.560925 0.681743
vt 0.557183 0.988515
vt 0.008787 0.680301
vt 0.008788 0.989824
vt 0.005315 0.682062
vt 0.005315 0.988063
vt 0.573902 0.348097
vt 0.576482 0.327572
vt 0.576485 0.348097
vt 0.574259 0.328905
vt 0.026448 0.348097
vt 0.026410 0.328784
vt 0.584751 0.327460
vt 0.576475 0.020724
vt 0.584751 0.020561
vt 0.574029 0.323095
vt 0.574029 0.023125
vt 0.572206 0.021399
vt 0.029409 0.021399
vt 0.026232 0.019068
vt 0.027587 0.023125
vt 0.024420 0.020889
vt 0.024384 0.326707
vt 0.027587 0.323095
vt 0.029409 0.324823
vt 0.572206 0.324822
vt 0.574520 0.019081
vt 0.026164 0.000320
vt 0.023412 0.019145
vt 0.023412 0.000320
vt 0.574425 0.000320
vt 0.577007 0.000320
vt 0.577007 0.019145
vt 0.994610 0.028495
vt 0.994610 0.006490
vt 0.994610 0.123246
vt 0.994612 0.079099
vt 0.994612 0.006978
vt 0.011358 0.372374
vt 0.007279 0.678298
vt 0.011358 0.659237
vt 0.001996 0.354929
vt 0.531558 0.372374
vt 0.540922 0.354929
vt 0.531558 0.659237
vt 0.539159 0.676682
vt 0.994610 0.053468
vt 0.738619 0.981000
vt 0.796274 0.461743
vt 0.796274 0.981000
vt 0.738619 0.461743
vt 0.734660 0.129381
vt 0.794491 0.449587
vt 0.794491 0.129381
vt 0.734660 0.449587
vt 0.863224 0.449438
vt 0.803393 0.129233
vt 0.863226 0.129233
vt 0.803393 0.449438
vt 0.866123 0.980999
vt 0.808468 0.461743
vt 0.808468 0.980999
vt 0.866123 0.461743
vt 0.876489 0.461743
vt 0.934145 0.980975
vt 0.934145 0.461743
vt 0.876489 0.980975
vt 0.702972 0.988669
vt 0.678161 0.469652
vt 0.702666 0.458533
vt 0.678456 0.977511
vt 0.005310 0.326598
vt 0.024111 0.329974
vt 0.005285 0.329974
vt 0.005335 0.020798
s 1
usemtl bts_table
f 1/1/1 2/2/1 3/3/1
f 2/4/1 4/5/1 5/6/1
f 2/4/1 1/1/1 4/5/1
f 6/7/1 7/8/1 8/9/1
f 8/9/1 9/10/1 6/7/1
f 8/11/2 10/12/2 11/13/2
f 8/11/2 12/14/2 10/12/2
f 11/15/1 13/16/1 9/17/1
f 9/17/1 8/18/1 11/15/1
f 14/19/3 15/20/3 16/21/3
f 14/19/3 17/22/3 15/20/3
f 4/5/4 18/23/4 19/24/4
f 4/5/4 1/1/4 18/23/4
f 20/25/5 21/26/5 22/27/5
f 20/25/5 23/28/5 21/26/5
f 5/6/6 19/24/6 24/29/6
f 5/6/6 4/5/6 19/24/6
f 25/30/7 10/31/7 26/32/7
f 25/30/7 27/33/7 10/31/7
f 28/34/7 27/35/7 25/36/7
f 28/34/7 29/37/7 27/35/7
f 30/38/7 10/39/7 12/40/7
f 30/38/7 26/41/7 10/39/7
f 31/42/8 2/2/8 32/43/8
f 31/42/8 3/3/8 2/2/8
f 2/4/9 24/29/9 32/44/9
f 2/4/9 5/6/9 24/29/9
f 30/45/7 29/46/7 28/47/7
f 30/45/7 12/48/7 29/46/7
f 7/49/1 6/50/1 33/51/1
f 33/51/1 34/52/1 7/49/1
f 7/53/10 27/54/10 29/55/10
f 7/53/10 34/56/10 27/54/10
f 8/57/11 29/58/11 12/59/11
f 8/57/11 7/60/11 29/58/11
f 35/6/12 36/24/12 37/29/12
f 35/6/12 38/5/12 36/24/12
f 39/4/1 38/5/1 35/6/1
f 39/4/1 40/1/1 38/5/1
f 40/1/1 39/2/1 41/3/1
f 15/20/1 20/61/1 16/21/1
f 20/25/1 42/62/1 23/28/1
f 20/25/1 15/20/1 42/62/1
f 43/42/13 39/2/13 44/43/13
f 43/42/13 41/3/13 39/2/13
f 39/4/14 37/29/15 44/44/15
f 39/4/14 35/6/14 37/29/15
f 45/63/16 46/64/16 47/65/16
f 45/63/16 48/66/16 46/64/16
f 49/67/1 48/66/1 45/63/1
f 49/67/1 50/68/1 48/66/1
f 50/68/1 49/69/1 51/70/1
f 52/71/1 53/72/1 54/73/1
f 52/71/1 55/74/1 53/72/1
f 55/74/1 52/71/1 56/75/1
f 55/74/1 56/75/1 57/76/1
f 57/76/1 56/75/1 58/77/1
f 57/76/1 58/77/1 59/78/1
f 55/79/17 60/80/18 53/81/18
f 55/79/17 61/82/17 60/80/18
f 57/83/19 61/82/17 55/79/17
f 57/83/19 62/84/19 61/82/17
f 53/85/18 63/86/20 54/87/20
f 53/85/18 60/80/18 63/86/20
f 64/88/21 60/80/22 61/82/23
f 63/86/24 60/80/22 64/88/21
f 64/88/21 65/89/25 63/86/24
f 66/90/26 63/86/24 65/89/25
f 65/89/25 67/91/27 66/90/26
f 66/90/26 67/91/27 68/92/28
f 69/93/29 68/92/28 67/91/27
f 69/93/29 70/94/30 68/92/28
f 71/95/31 70/94/30 69/93/29
f 69/93/29 72/96/32 71/95/31
f 73/97/33 71/95/31 72/96/32
f 65/89/25 73/97/33 72/96/32
f 65/89/25 74/98/34 73/97/33
f 65/89/25 64/88/21 74/98/34
f 64/88/21 61/82/23 74/98/34
f 74/98/34 61/82/23 62/84/35
f 74/98/34 62/84/35 73/97/33
f 73/97/33 62/84/35 71/95/31
f 65/89/25 69/93/29 67/91/27
f 65/89/25 72/96/32 69/93/29
f 66/90/26 75/99/36 63/86/24
f 68/92/28 75/99/36 66/90/26
f 56/100/37 70/101/38 58/102/38
f 56/100/37 68/92/37 70/101/38
f 52/103/39 68/92/37 56/100/37
f 52/103/39 75/99/39 68/92/37
f 54/104/20 75/99/39 52/103/39
f 54/104/20 63/105/20 75/99/39
f 76/106/40 49/69/40 77/107/40
f 76/106/40 51/70/40 49/69/40
f 49/67/41 47/65/41 77/108/41
f 49/67/41 45/63/41 47/65/41
f 23/28/42 78/109/42 21/26/42
f 23/28/42 42/62/42 78/109/42
f 14/19/43 20/61/43 22/110/43
f 14/19/43 16/21/43 20/61/43
f 79/111/44 80/112/45 81/113/46
f 79/111/47 82/114/45 80/112/45
f 83/115/48 84/116/49 82/114/49
f 83/115/48 82/114/49 79/111/44
f 81/113/46 83/115/48 79/111/44
f 81/113/46 85/117/50 83/115/48
f 81/113/46 86/118/51 85/117/50
f 81/113/52 80/112/51 86/118/51
f 85/117/50 84/116/53 83/115/48
f 85/117/50 86/118/53 84/116/53
f 42/62/54 17/22/54 78/109/54
f 42/62/54 15/20/54 17/22/54
f 31/42/55 1/1/55 3/3/55
f 31/42/55 18/23/55 1/1/55
f 48/66/56 87/119/56 46/64/56
f 48/66/56 50/68/56 87/119/56
f 76/106/57 50/68/57 51/70/57
f 76/106/57 87/119/57 50/68/57
f 38/5/58 88/23/58 36/24/58
f 38/5/58 40/1/58 88/23/58
f 43/42/59 40/1/59 41/3/59
f 43/42/59 88/23/59 40/1/59
f 13/120/11 25/121/11 26/122/11
f 13/120/11 33/123/11 25/121/11
f 28/124/60 33/125/60 6/126/60
f 28/124/60 25/127/60 33/125/60
f 13/128/61 30/129/61 9/130/61
f 13/128/61 26/131/61 30/129/61
f 30/132/62 6/133/62 9/134/62
f 30/132/62 28/135/62 6/133/62
f 34/136/62 10/137/62 27/138/62
f 34/136/62 11/139/62 10/137/62
f 13/140/1 34/141/1 33/142/1
f 13/140/1 11/143/1 34/141/1
f 59/144/63 62/145/19 57/146/19
f 59/144/63 71/95/63 62/145/19
f 58/147/38 71/95/63 59/144/63
f 58/147/38 70/94/38 71/95/63
