# Blender 4.0.2
# www.blender.org
mtllib sign_frame2.mtl
o sign_frame02
v -0.502377 14.175380 -33.367378
v 3.838295 14.270147 -33.313084
v -0.502377 14.270147 -33.313084
v 3.838295 14.175380 -33.367378
v -0.502373 -14.175380 -33.367378
v 3.838295 -14.175380 -33.367378
v -0.502373 -14.270147 -33.313084
v 3.838295 -14.270147 -33.313084
v -0.502373 -14.352522 -33.230709
v 3.838295 -14.352522 -33.230709
v -0.502373 -14.406816 -33.135941
v 3.838295 -14.406816 -33.135941
v -0.502364 -14.406816 -2.772225
v 3.838307 -14.406816 -2.772227
v 3.838295 14.352522 -33.230709
v -0.502377 14.352522 -33.230709
v 3.838295 14.406816 -33.135941
v -0.502377 14.406816 -33.135941
v 3.838306 14.406816 -2.772227
v -0.502365 14.406816 -2.772225
v 3.838306 14.101761 -2.467171
v -0.502365 14.101761 -2.467170
v 3.838307 -14.101761 -2.467171
v -0.502364 -14.101761 -2.467170
v -0.502377 17.116659 -34.619911
v -0.025867 17.584000 -1.568642
v -0.025879 17.584000 -34.712872
v -0.502377 16.898474 -35.141338
v -0.025879 17.300714 -35.396782
v -0.502377 16.432430 -35.607380
v -0.025879 16.687874 -36.009624
v -0.502377 15.911003 -35.825565
v -0.025879 16.003963 -36.292908
v -0.502377 -15.911003 -35.825565
v -0.025879 -16.003963 -36.292908
v -0.502377 -16.432430 -35.607380
v -0.025879 -16.687874 -36.009624
v -0.502377 -16.898474 -35.141338
v -0.025879 -17.300714 -35.396782
v -0.502377 -17.116659 -34.619911
v -0.025879 -17.584000 -34.712872
v -0.502364 -17.116659 -1.567619
v -0.025867 -17.584000 -1.568642
v -0.025866 -17.584000 1.592162
v -0.502350 -16.432430 35.607380
v -0.502350 -16.898474 35.141338
v -0.025852 -17.300714 35.396782
v -0.025852 -17.584000 34.712872
v -0.502350 -17.116659 34.619911
v -0.502362 -17.116659 1.591075
v -0.502362 -14.406816 2.772225
v -0.502350 -14.406816 33.135941
v -0.502350 -14.352522 33.230709
v -0.502350 -14.270147 33.313084
v -0.502350 -15.911003 35.825565
v -0.502350 -14.175380 33.367378
v -0.502354 15.911003 35.825565
v -0.502354 14.175380 33.367378
v -0.502354 16.432430 35.607380
v -0.502354 14.270147 33.313084
v -0.502354 16.898474 35.141338
v -0.502354 14.352522 33.230709
v -0.502365 17.116659 -1.567619
v -0.502363 17.116659 1.591075
v -0.025867 17.584000 1.592162
v -0.025856 17.584000 34.712872
v -0.502354 17.116659 34.619911
v -0.025856 17.300714 35.396782
v -0.025856 16.687874 36.009624
v -0.025856 16.003963 36.292908
v -0.025852 -16.003963 36.292908
v -0.025852 -16.687874 36.009624
v -0.502363 14.406816 2.772225
v -0.502354 14.406816 33.135941
v 3.850254 -16.687874 36.009624
v 3.850254 -16.003963 36.292908
v 3.850254 -17.300714 35.396782
v 3.850254 -17.584000 34.712872
v 3.850243 -17.584000 1.592161
v 3.850240 -17.584000 -1.568643
v 3.850227 -17.584000 -34.712872
v 3.850227 -17.300714 -35.396782
v 3.850227 -16.687874 -36.009624
v 3.850227 -16.003963 -36.292908
v 3.838309 -14.406816 2.772224
v 3.838320 -14.406816 33.135941
v 3.838309 -14.101761 2.467168
v -0.502362 -14.101761 2.467170
v 3.838320 -14.352522 33.230709
v 3.838320 -14.270147 33.313084
v 3.838320 -14.175380 33.367378
v 3.838318 14.175380 33.367378
v 3.838318 14.270147 33.313084
v 3.838318 14.352522 33.230709
v 3.838318 14.406816 33.135941
v 3.838308 14.406816 2.772224
v 3.838308 14.101761 2.467168
v -0.502363 14.101761 2.467170
v 3.850227 16.687874 -36.009624
v 3.850227 16.003963 -36.292908
v 3.850227 17.300714 -35.396782
v 3.850227 17.584000 -34.712872
v 3.850239 17.584000 -1.568643
v 3.850241 17.584000 1.592161
v 3.850252 17.584000 34.712872
v 3.850252 17.300714 35.396782
v 3.850254 16.687874 36.009624
v 3.850254 16.003963 36.292908
vn -0.0000 -0.2572 0.9664
vn -0.0000 -0.6074 0.7944
vn -0.0000 -0.6075 0.7944
vn -0.0000 0.2572 0.9664
vn -0.0000 0.6074 0.7944
vn -0.0000 0.7944 0.6074
vn -0.0000 0.9664 0.2572
vn -0.0000 0.9239 -0.3827
vn -0.0000 -0.7944 0.6075
vn -0.0000 -0.7944 0.6074
vn -0.0000 -0.9664 0.2572
vn -0.0000 -0.9239 -0.3827
vn -0.0000 -0.3827 -0.9239
vn -0.0000 0.3827 -0.9239
vn -0.9248 0.3731 -0.0745
vn -0.3782 0.9257 -0.0000
vn -0.3848 0.9052 -0.1803
vn -0.9245 0.3167 -0.2121
vn -0.3842 0.7674 -0.5133
vn -0.9245 0.2121 -0.3167
vn -0.3842 0.5133 -0.7674
vn -0.9248 0.0745 -0.3731
vn -0.3848 0.1801 -0.9053
vn -0.9248 -0.0745 -0.3732
vn -0.3848 -0.1803 -0.9052
vn -0.9245 -0.2121 -0.3167
vn -0.3842 -0.5133 -0.7674
vn -0.9245 -0.3167 -0.2121
vn -0.3842 -0.7674 -0.5133
vn -0.9248 -0.3732 -0.0745
vn -0.3848 -0.9053 -0.1801
vn -0.9220 -0.3872 -0.0000
vn -0.3782 -0.9257 -0.0000
vn -1.0000 -0.0000 -0.0000
vn -0.9245 -0.2121 0.3167
vn -0.9245 -0.3167 0.2121
vn -0.3842 -0.7674 0.5133
vn -0.3848 -0.9052 0.1803
vn -0.9248 -0.3731 0.0745
vn -0.9248 -0.0745 0.3732
vn -0.9248 0.0745 0.3732
vn -0.9245 0.2121 0.3167
vn -0.9245 0.3167 0.2121
vn -0.9220 0.3872 -0.0000
vn -0.3848 0.9052 0.1803
vn -0.9248 0.3732 0.0745
vn -0.3842 0.7674 0.5133
vn -0.3842 0.5133 0.7674
vn -0.3848 0.1803 0.9052
vn -0.3848 -0.1803 0.9052
vn -0.3842 -0.5133 0.7674
vn -0.0000 -0.5556 0.8315
vn -0.0000 -0.1951 0.9808
vn -0.0000 -0.8315 0.5556
vn -0.0000 -0.9808 0.1951
vn -0.0000 -1.0000 -0.0000
vn -0.0000 -0.9808 -0.1951
vn -0.0000 -0.8315 -0.5556
vn -0.0000 -0.5556 -0.8315
vn -0.0000 -0.1951 -0.9808
vn -0.0000 0.9664 -0.2572
vn -0.0000 0.9239 0.3827
vn -0.0000 0.3827 0.9239
vn -0.0000 0.7944 -0.6074
vn -0.0000 0.7944 -0.6075
vn -0.0000 0.6075 -0.7944
vn -0.0000 0.6074 -0.7944
vn -0.0000 0.2572 -0.9664
vn -0.0000 -0.2572 -0.9664
vn -0.0000 -0.6074 -0.7944
vn -0.0000 -0.6075 -0.7944
vn -0.0000 -0.7944 -0.6075
vn -0.0000 -0.7944 -0.6074
vn -0.0000 -0.9664 -0.2572
vn -0.0000 -0.9239 0.3827
vn -0.0000 -0.3827 0.9239
vn -0.0000 0.5556 -0.8315
vn -0.0000 0.1951 -0.9808
vn -0.0000 0.8315 -0.5556
vn -0.0000 0.9808 -0.1951
vn -0.0000 1.0000 -0.0000
vn -0.0000 0.9808 0.1951
vn -0.0000 0.8315 0.5556
vn -0.0000 0.5556 0.8315
vn -0.0000 0.1951 0.9808
vt 0.557246 0.112877
vt 0.556474 0.184549
vt 0.556474 0.112877
vt 0.557246 0.184549
vt 0.757762 0.112877
vt 0.757762 0.184549
vt 0.758535 0.112877
vt 0.758535 0.184549
vt 0.759359 0.112877
vt 0.759359 0.184549
vt 0.760131 0.112877
vt 0.760131 0.184549
vt 0.974884 0.112877
vt 0.974884 0.184549
vt 0.555650 0.184549
vt 0.555650 0.112877
vt 0.554878 0.184549
vt 0.554878 0.112877
vt 0.340125 0.184549
vt 0.340125 0.112877
vt 0.337073 0.184549
vt 0.337073 0.112877
vt 0.027551 0.184549
vt 0.027551 0.112877
vt 0.977935 0.184549
vt 0.977935 0.112877
vt 0.035773 0.982065
vt 0.479275 0.988337
vt 0.034525 0.988337
vt 0.028776 0.979138
vt 0.025348 0.984535
vt 0.022522 0.972884
vt 0.017125 0.976312
vt 0.019595 0.965887
vt 0.013324 0.967135
vt 0.019595 0.538880
vt 0.013324 0.537633
vt 0.022522 0.531884
vt 0.017125 0.528456
vt 0.028776 0.525630
vt 0.025348 0.520232
vt 0.035773 0.522702
vt 0.034525 0.516431
vt 0.479288 0.522702
vt 0.479275 0.516431
vt 0.521688 0.516431
vt 0.044054 0.954309
vt 0.044054 0.550458
vt 0.044827 0.549108
vt 0.046001 0.547935
vt 0.047351 0.547162
vt 0.479876 0.547162
vt 0.978125 0.531884
vt 0.971871 0.525630
vt 0.975299 0.520232
vt 0.966122 0.516431
vt 0.964874 0.522702
vt 0.521674 0.522702
vt 0.520771 0.547162
vt 0.953296 0.547162
vt 0.954646 0.547935
vt 0.955820 0.549108
vt 0.981053 0.538880
vt 0.956593 0.550458
vt 0.981053 0.965887
vt 0.956593 0.954309
vt 0.978125 0.972884
vt 0.955820 0.955659
vt 0.971871 0.979138
vt 0.954646 0.956833
vt 0.479876 0.957606
vt 0.047351 0.957606
vt 0.479288 0.982065
vt 0.521674 0.982065
vt 0.521688 0.988337
vt 0.966122 0.988337
vt 0.964874 0.982065
vt 0.975299 0.984535
vt 0.983522 0.976312
vt 0.987324 0.967135
vt 0.987324 0.537633
vt 0.983522 0.528456
vt 0.520771 0.957606
vt 0.953296 0.957606
vt 0.022756 0.380515
vt 0.013027 0.380507
vt 0.013057 0.304710
vt 0.022776 0.304716
vt 0.034150 0.380524
vt 0.034157 0.304716
vt 0.043883 0.380530
vt 0.043882 0.304712
vt 0.479282 0.380474
vt 0.479279 0.304659
vt 0.520816 0.304685
vt 0.520813 0.380449
vt 0.956168 0.304747
vt 0.956166 0.380509
vt 0.965896 0.380513
vt 0.965889 0.304742
vt 0.977292 0.380512
vt 0.977272 0.304733
vt 0.987027 0.380507
vt 0.986998 0.304725
vt 0.243664 0.208635
vt 0.028912 0.280307
vt 0.028912 0.208635
vt 0.243664 0.280307
vt 0.025860 0.280307
vt 0.025860 0.208635
vt 0.244437 0.208635
vt 0.244437 0.280307
vt 0.245261 0.208635
vt 0.245261 0.280307
vt 0.246033 0.208635
vt 0.246033 0.280307
vt 0.446549 0.208635
vt 0.446549 0.280307
vt 0.447322 0.208635
vt 0.447322 0.280307
vt 0.448146 0.208635
vt 0.448146 0.280307
vt 0.448918 0.208635
vt 0.448918 0.280307
vt 0.663671 0.208635
vt 0.663671 0.280307
vt 0.666722 0.280307
vt 0.666722 0.208635
vt 0.976244 0.208635
vt 0.976244 0.280307
vt 0.023330 0.484757
vt 0.013595 0.484751
vt 0.013624 0.408969
vt 0.023350 0.408978
vt 0.034726 0.484757
vt 0.034734 0.408986
vt 0.044456 0.484754
vt 0.044455 0.408992
vt 0.479809 0.484701
vt 0.479806 0.408936
vt 0.521344 0.408911
vt 0.521340 0.484726
vt 0.956740 0.408971
vt 0.956739 0.484789
vt 0.966472 0.484783
vt 0.966465 0.408975
vt 0.977866 0.484774
vt 0.977846 0.408975
vt 0.987595 0.484766
vt 0.987566 0.408969
vt 0.046001 0.956833
vt 0.044827 0.955659
vt 0.016211 0.032225
vt 0.492846 0.089945
vt 0.016211 0.089945
vt 0.492846 0.032225
vt 0.983303 0.091704
vt 0.506667 0.033984
vt 0.983303 0.033984
vt 0.506667 0.091704
vt 0.484221 0.953261
vt 0.516426 0.953261
vt 0.516426 0.551507
vt 0.484221 0.551507
s 1
usemtl sign_frame02
f 1/1/1 2/2/2 3/3/3
f 1/1/1 4/4/1 2/2/2
f 5/5/4 4/4/1 1/1/1
f 5/5/4 6/6/4 4/4/1
f 7/7/5 6/6/4 5/5/4
f 7/7/5 8/8/5 6/6/4
f 9/9/6 8/8/5 7/7/5
f 9/9/6 10/10/6 8/8/5
f 11/11/7 10/10/6 9/9/6
f 11/11/7 12/12/7 10/10/6
f 13/13/8 12/12/7 11/11/7
f 13/13/8 14/14/8 12/12/7
f 3/3/3 15/15/9 16/16/10
f 3/3/3 2/2/2 15/15/9
f 16/16/10 17/17/11 18/18/11
f 16/16/10 15/15/9 17/17/11
f 18/18/11 19/19/12 20/20/12
f 18/18/11 17/17/11 19/19/12
f 20/20/12 21/21/13 22/22/13
f 20/20/12 19/19/12 21/21/13
f 22/22/13 23/23/14 24/24/14
f 22/22/13 21/21/13 23/23/14
f 23/25/14 13/13/8 24/26/14
f 23/25/14 14/14/8 13/13/8
f 25/27/15 26/28/16 27/29/17
f 27/29/17 28/30/18 25/27/15
f 27/29/17 29/31/19 28/30/18
f 30/32/20 28/30/18 29/31/19
f 30/32/20 29/31/19 31/33/21
f 31/33/21 32/34/22 30/32/20
f 31/33/21 33/35/23 32/34/22
f 34/36/24 32/34/22 33/35/23
f 34/36/24 33/35/23 35/37/25
f 35/37/25 36/38/26 34/36/24
f 35/37/25 37/39/27 36/38/26
f 38/40/28 36/38/26 37/39/27
f 38/40/28 37/39/27 39/41/29
f 39/41/29 40/42/30 38/40/28
f 39/41/29 41/43/31 40/42/30
f 41/43/31 42/44/32 40/42/30
f 41/43/31 43/45/33 42/44/32
f 44/46/33 42/44/32 43/45/33
f 1/47/34 34/36/24 5/48/34
f 1/47/34 32/34/22 34/36/24
f 5/48/34 36/38/26 7/49/34
f 5/48/34 34/36/24 36/38/26
f 7/49/34 38/40/28 9/50/34
f 7/49/34 36/38/26 38/40/28
f 9/50/34 40/42/30 11/51/34
f 9/50/34 38/40/28 40/42/30
f 40/42/30 42/44/32 13/52/34
f 40/42/30 13/52/34 11/51/34
f 45/53/35 46/54/36 47/55/37
f 48/56/38 47/55/37 46/54/36
f 48/56/38 46/54/36 49/57/39
f 49/57/39 44/46/33 48/56/38
f 49/57/39 50/58/32 44/46/33
f 44/46/33 50/58/32 42/44/32
f 50/58/32 13/52/34 42/44/32
f 50/58/32 51/59/34 13/52/34
f 51/59/34 49/57/39 52/60/34
f 51/59/34 50/58/32 49/57/39
f 53/61/34 45/53/35 54/62/34
f 53/61/34 46/54/36 45/53/35
f 52/60/34 46/54/36 53/61/34
f 52/60/34 49/57/39 46/54/36
f 54/62/34 55/63/40 56/64/34
f 54/62/34 45/53/35 55/63/40
f 56/64/34 57/65/41 58/66/34
f 56/64/34 55/63/40 57/65/41
f 58/66/34 59/67/42 60/68/34
f 58/66/34 57/65/41 59/67/42
f 60/68/34 61/69/43 62/70/34
f 60/68/34 59/67/42 61/69/43
f 20/71/34 25/27/15 18/72/34
f 20/71/34 63/73/44 25/27/15
f 25/27/15 63/73/44 26/28/16
f 64/74/44 26/28/16 63/73/44
f 64/74/44 65/75/16 26/28/16
f 66/76/45 65/75/16 64/74/44
f 66/76/45 64/74/44 67/77/46
f 68/78/47 66/76/45 67/77/46
f 68/78/47 67/77/46 61/69/43
f 61/69/43 69/79/48 68/78/47
f 61/69/43 59/67/42 69/79/48
f 70/80/49 69/79/48 59/67/42
f 70/80/49 59/67/42 57/65/41
f 57/65/41 71/81/50 70/80/49
f 57/65/41 55/63/40 71/81/50
f 72/82/51 71/81/50 55/63/40
f 72/82/51 55/63/40 45/53/35
f 45/53/35 47/55/37 72/82/51
f 67/77/46 73/83/34 74/84/34
f 67/77/46 64/74/44 73/83/34
f 63/73/44 73/83/34 64/74/44
f 63/73/44 20/71/34 73/83/34
f 62/70/34 67/77/46 74/84/34
f 62/70/34 61/69/43 67/77/46
f 75/85/52 76/86/53 71/87/50
f 75/85/52 71/87/50 72/88/51
f 72/88/51 77/89/54 75/85/52
f 72/88/51 47/90/37 77/89/54
f 78/91/55 77/89/54 47/90/37
f 78/91/55 47/90/37 48/92/38
f 48/92/38 79/93/56 78/91/55
f 48/92/38 44/94/33 79/93/56
f 43/95/33 79/93/56 44/94/33
f 43/95/33 80/96/56 79/93/56
f 41/97/31 80/96/56 43/95/33
f 41/97/31 81/98/57 80/96/56
f 82/99/58 81/98/57 41/97/31
f 82/99/58 41/97/31 39/100/29
f 39/100/29 83/101/59 82/99/58
f 39/100/29 37/102/27 83/101/59
f 84/103/60 83/101/59 37/102/27
f 84/103/60 37/102/27 35/104/25
f 52/105/61 85/106/62 51/107/62
f 52/105/61 86/108/61 85/106/62
f 85/106/62 87/109/63 88/110/63
f 85/106/62 88/110/63 51/107/62
f 53/111/64 86/108/61 52/105/61
f 53/111/64 89/112/65 86/108/61
f 54/113/66 89/112/65 53/111/64
f 54/113/66 90/114/67 89/112/65
f 56/115/68 90/114/67 54/113/66
f 56/115/68 91/116/68 90/114/67
f 58/117/69 91/116/68 56/115/68
f 58/117/69 92/118/69 91/116/68
f 60/119/70 92/118/69 58/117/69
f 60/119/70 93/120/71 92/118/69
f 62/121/72 93/120/71 60/119/70
f 62/121/72 94/122/73 93/120/71
f 74/123/74 94/122/73 62/121/72
f 74/123/74 95/124/74 94/122/73
f 73/125/75 95/124/74 74/123/74
f 73/125/75 96/126/75 95/124/74
f 97/127/76 96/126/75 73/125/75
f 97/127/76 73/125/75 98/128/76
f 88/129/63 97/127/76 98/128/76
f 88/129/63 87/130/63 97/127/76
f 99/131/77 100/132/78 33/133/23
f 99/131/77 33/133/23 31/134/21
f 31/134/21 101/135/79 99/131/77
f 31/134/21 29/136/19 101/135/79
f 102/137/80 101/135/79 29/136/19
f 102/137/80 29/136/19 27/138/17
f 27/138/17 103/139/81 102/137/80
f 27/138/17 26/140/16 103/139/81
f 65/141/16 103/139/81 26/140/16
f 65/141/16 104/142/81 103/139/81
f 66/143/45 104/142/81 65/141/16
f 66/143/45 105/144/82 104/142/81
f 106/145/83 105/144/82 66/143/45
f 106/145/83 66/143/45 68/146/47
f 68/146/47 107/147/84 106/145/83
f 68/146/47 69/148/48 107/147/84
f 108/149/85 107/147/84 69/148/48
f 108/149/85 69/148/48 70/150/49
f 18/72/34 28/30/18 16/151/34
f 18/72/34 25/27/15 28/30/18
f 16/151/34 30/32/20 3/152/34
f 16/151/34 28/30/18 30/32/20
f 3/152/34 32/34/22 1/47/34
f 3/152/34 30/32/20 32/34/22
f 35/153/25 100/154/78 84/155/60
f 35/153/25 33/156/23 100/154/78
f 70/157/49 76/158/53 108/159/85
f 70/157/49 71/160/50 76/158/53
f 22/161/34 73/83/34 20/71/34
f 22/161/34 98/162/34 73/83/34
f 88/163/34 13/52/34 51/59/34
f 88/163/34 24/164/34 13/52/34
f 24/164/34 98/162/34 22/161/34
f 24/164/34 88/163/34 98/162/34
